<?xml version="1.0" encoding="UTF-8"?>
<svg width="39px" height="40px" viewBox="0 0 39 40" version="1.1" xmlns="http://www.w3.org/2000/svg" xmlns:xlink="http://www.w3.org/1999/xlink">
    <title>待办</title>
    <g id="工作台" stroke="none" stroke-width="1" fill="none" fill-rule="evenodd">
        <g id="待办" fill="#000000" fill-rule="nonzero">
            <path d="M1.21862093,0.682026558 L11.4555508,0.682026558 L11.4555508,10.9188705 L1.21862093,10.9188705 L1.21862093,0.682026558 Z M15.1705044,3.97906555 L38.7814303,3.97906555 L38.7814303,7.62200338 L15.1705044,7.62200338 L15.1705044,3.97906555 Z M15.1705044,17.6831479 L38.7814303,17.6831479 L38.7814303,21.3260857 L15.1705044,21.3260857 L15.1705044,17.6831479 Z M1.21862093,29.0810518 L11.4555508,29.0810518 L11.4555508,39.3178957 L1.21862093,39.3178957 L1.21862093,29.0810518 Z M15.1705044,32.3780048 L38.7814303,32.3780048 L38.7814303,36.0209427 L15.1705044,36.0209427 L15.1705044,32.3780048 Z M5.32914525,20.5893427 L2.07296958,17.7773355 L0.485616174,19.6154978 L5.50256732,23.9481279 L6.14856026,23.2002559 L13.1256192,16.2572283 L11.4124961,14.5356833 L5.32914525,20.5893427 Z" id="形状"></path>
        </g>
    </g>
</svg>